<?xml version="1.0" encoding="utf-8"?>
<svg version="1.1" id="Layer_1" x="0px" y="0px" viewBox="0 0 512 512" style="enable-background:new 0 0 512 512;" xmlns="http://www.w3.org/2000/svg">
  <defs>
    <clipPath id="clip0_289:11501">
      <rect width="589" height="303" fill="white" transform="translate(0 0.5)"/>
    </clipPath>
  </defs>
  <g transform="matrix(-1, 0, 0, -1, 393.709717, 512.000977)"/>
  <g>
    <g transform="matrix(0.060192, 0, 0, 0.042415, 468.133423, 13.381288)" style="">
      <g transform="matrix(-1, 0, 0, -1, 393.709717, 512.000977)">
        <g>
          <path d="M272.512,256L393.625,14.776c1.587-3.162,1.424-6.92-0.435-9.931S388.048,0,384.51,0H250.9 c-3.857,0-7.384,2.177-9.115,5.622l-123.41,245.801c-1.446,2.88-1.446,6.275,0,9.154l123.41,245.801 c1.731,3.446,5.258,5.623,9.115,5.623h133.61c3.538,0,6.821-1.834,8.68-4.845s2.023-6.768,0.434-9.931L272.512,256z M257.192,491.602L138.902,256l118.29-235.602h110.785L251.986,251.423c-1.446,2.88-1.446,6.275,0,9.154l115.991,231.025H257.192z "/>
        </g>
      </g>
      <g transform="matrix(-1, 0, 0, -1, 393.709717, 512.000977)">
        <path d="M258.997,415.967l-3.241-6.456c-2.528-5.032-8.655-7.068-13.691-4.54c-5.033,2.528-7.067,8.657-4.54,13.691l3.241,6.456 c1.791,3.566,5.387,5.626,9.123,5.626c1.538,0,3.1-0.349,4.568-1.086C259.49,427.13,261.524,421.002,258.997,415.967z"/>
      </g>
      <g transform="matrix(-1, 0, 0, -1, 393.709717, 512.000977)">
        <g>
          <path d="M239.367,376.872l-62.985-125.449c-2.526-5.033-8.653-7.067-13.691-4.538c-5.033,2.527-7.066,8.657-4.538,13.691 l62.985,125.449c1.79,3.566,5.387,5.625,9.122,5.625c1.538,0,3.1-0.35,4.569-1.087 C239.863,388.036,241.896,381.906,239.367,376.872z"/>
        </g>
      </g>
    </g>
  </g>
  <g transform="matrix(-1, 0, 0, -1, 393.709717, 512.000977)"/>
  <g transform="matrix(-1, 0, 0, -1, 393.709717, 512.000977)"/>
  <g transform="matrix(-1, 0, 0, -1, 393.709717, 512.000977)"/>
  <g transform="matrix(-1, 0, 0, -1, 393.709717, 512.000977)"/>
  <g transform="matrix(-1, 0, 0, -1, 393.709717, 512.000977)"/>
  <g transform="matrix(-1, 0, 0, -1, 393.709717, 512.000977)"/>
  <g transform="matrix(-1, 0, 0, -1, 393.709717, 512.000977)"/>
  <g transform="matrix(-1, 0, 0, -1, 393.709717, 512.000977)"/>
  <g transform="matrix(-1, 0, 0, -1, 393.709717, 512.000977)"/>
  <g transform="matrix(-1, 0, 0, -1, 393.709717, 512.000977)"/>
  <g transform="matrix(-1, 0, 0, -1, 393.709717, 512.000977)"/>
  <g transform="matrix(-1, 0, 0, -1, 393.709717, 512.000977)"/>
  <g transform="matrix(-1, 0, 0, -1, 393.709717, 512.000977)"/>
  <g transform="matrix(-1, 0, 0, -1, 393.709717, 512.000977)"/>
  <g transform="matrix(-1, 0, 0, -1, 393.709717, 512.000977)"/>
  <g>
    <g transform="matrix(0.865969, -0.000016, 0, 1.070083, 555.686035, -101.728767)" style="">
      <g transform="matrix(1, 0, 0, 1, -843.897705, 191.857422)">
        <rect x="253.193" y="-49.461" width="539.314" height="430.283" style="fill: rgb(42, 51, 58);"/>
        <text style="white-space: pre; fill: rgb(255, 255, 255); font-family: Arial, sans-serif; font-size: 18.2px;" x="480.074" y="108.379" transform="matrix(20.720503, 0, 0, 22.710236, -9655.139648, -2175.606934)">&gt;<tspan x="480.0740051269531" dy="1em">​</tspan><tspan x="480.0740051269531" dy="1em">​</tspan></text>
        <text style="fill: rgb(255, 255, 255); font-family: Arial, sans-serif; font-size: 21.8px; white-space: pre;" transform="matrix(19.270983, 0, 0, 17.33448, -7080.963867, -5492.782715)"><tspan x="388.445" y="329.983">_</tspan><tspan x="388.445" dy="1em">​</tspan></text>
        <g transform="matrix(1, 0, 0, 1, 172.851654, -127.82869)">
          <rect x="29.541" y="31.012" width="539.314" height="430.283" style="fill: rgb(42, 51, 58);"/>
          <text style="fill: rgb(255, 255, 255); font-family: Arial, sans-serif; font-size: 18.2px; white-space: pre;" transform="matrix(20.720503, 0, 0, 22.710236, -9878.791016, -2095.134033)"><tspan x="480.074" y="108.379">&gt;</tspan><tspan x="480.074" dy="1em">​</tspan><tspan x="480.074" dy="1em">​</tspan></text>
          <text style="fill: rgb(255, 255, 255); font-family: Arial, sans-serif; font-size: 21.8px; white-space: pre;" transform="matrix(19.270983, 0, 0, 17.33448, -7304.615723, -5412.310059)"><tspan x="388.445" y="329.983">_</tspan><tspan x="388.445" dy="1em">​</tspan></text>
        </g>
        <g transform="matrix(1, 0, 0, 1, 172.715973, -79.665901)">
          <rect x="29.541" y="31.012" width="539.314" height="430.283" style="fill: rgb(42, 51, 58);"/>
          <text style="fill: rgb(255, 255, 255); font-family: Arial, sans-serif; font-size: 18.2px; white-space: pre;" transform="matrix(20.720503, 0, 0, 22.710236, -9878.791016, -2095.134033)"><tspan x="480.074" y="108.379">&gt;</tspan><tspan x="480.074" dy="1em">​</tspan><tspan x="480.074" dy="1em">​</tspan></text>
          <text style="fill: rgb(255, 255, 255); font-family: Arial, sans-serif; font-size: 21.8px; white-space: pre;" transform="matrix(19.270983, 0, 0, 17.33448, -7304.615723, -5412.310059)"><tspan x="388.445" y="329.983">_</tspan><tspan x="388.445" dy="1em">​</tspan></text>
        </g>
        <g>
          <g transform="matrix(0.97303, 0, 0, 0.96328, 174.331039, -66.878822)" style="">
            <rect x="29.541" y="31.012" width="539.314" height="430.283" style="fill: rgb(42, 51, 58);"/>
            <text style="fill: rgb(255, 255, 255); font-family: Arial, sans-serif; font-size: 18.2px; white-space: pre;" transform="matrix(20.720503, 0, 0, 22.710236, -9878.791016, -2095.134033)"><tspan x="480.074" y="108.379">&gt;</tspan><tspan x="480.074" dy="1em">​</tspan><tspan x="480.074" dy="1em">​</tspan></text>
            <text style="fill: rgb(255, 255, 255); font-family: Arial, sans-serif; font-size: 21.8px; white-space: pre;" transform="matrix(19.270983, 0, 0, 17.33448, -7304.615723, -5412.310059)"><tspan x="388.445" y="329.983">_</tspan><tspan x="388.445" dy="1em">​</tspan></text>
          </g>
        </g>
      </g>
    </g>
  </g>
  <g clip-path="url(#clip0_289:11501)" transform="matrix(0.105344, 0, 0, 0.09677, 472.881744, 12.98465)" style="">
    <path d="M 137.641 91.336 L 169.164 91.336 L 169.164 136.803" stroke="#36255A" stroke-miterlimit="10" stroke-linecap="round" style=""/>
    <path d="M 143.996 184.104 L 112.933 184.104 C 109.366 184.104 106.375 181.057 106.375 177.156 L 106.375 153.387 C 106.375 149.608 109.251 146.438 112.933 146.438 L 143.996 146.438 C 147.562 146.438 150.553 149.486 150.553 153.387 L 150.553 177.156 C 150.553 181.057 147.677 184.104 143.996 184.104 Z" fill="white" stroke="#36255A" stroke-miterlimit="10" stroke-linecap="round" style=""/>
    <path d="M 356.797 38.066 L 116.572 38.066 L 116.572 214.815 L 356.797 214.815 L 356.797 38.066 Z" fill="white" stroke="#36255A" stroke-miterlimit="10" stroke-linecap="round" style=""/>
    <path d="M 357.267 30.875 L 357.267 43.065 L 116.127 43.065 L 116.127 30.875 C 116.127 27.706 118.198 25.146 120.729 25.146 L 352.78 25.146 C 355.311 25.146 357.267 27.706 357.267 30.875 Z" fill="#36255A" style=""/>
    <path d="M 130.047 38.067 C 132.145 38.067 133.844 36.266 133.844 34.045 C 133.844 31.823 132.145 30.022 130.047 30.022 C 127.95 30.022 126.251 31.823 126.251 34.045 C 126.251 36.266 127.95 38.067 130.047 38.067 Z" stroke="white" stroke-miterlimit="10" stroke-linecap="round" style=""/>
    <path d="M 143.278 38.067 C 145.375 38.067 147.074 36.266 147.074 34.045 C 147.074 31.823 145.375 30.022 143.278 30.022 C 141.181 30.022 139.482 31.823 139.482 34.045 C 139.482 36.266 141.181 38.067 143.278 38.067 Z" stroke="white" stroke-miterlimit="10" stroke-linecap="round" style=""/>
    <path d="M 156.393 38.067 C 158.49 38.067 160.19 36.266 160.19 34.045 C 160.19 31.823 158.49 30.022 156.393 30.022 C 154.297 30.022 152.597 31.823 152.597 34.045 C 152.597 36.266 154.297 38.067 156.393 38.067 Z" stroke="white" stroke-miterlimit="10" stroke-linecap="round" style=""/>
    <path d="M 359.588 123.812 L 360.392 226.169 L 285.227 226.83 L 284.424 124.472 L 291.342 124.395 C 291.336 124.517 291.329 124.639 291.323 124.76 C 291.334 126.714 292.859 128.393 294.818 128.387 C 296.662 128.374 298.245 126.759 298.241 124.683 C 298.247 124.561 298.254 124.44 298.26 124.318 L 305.063 124.235 C 305.056 124.356 305.05 124.477 305.043 124.599 C 305.055 126.553 306.58 128.231 308.539 128.226 C 310.383 128.213 311.967 126.598 311.961 124.522 C 311.968 124.4 311.974 124.278 311.98 124.157 L 318.783 124.073 C 318.777 124.195 318.77 124.316 318.764 124.438 C 318.776 126.393 320.3 128.07 322.26 128.064 C 324.104 128.051 325.687 126.436 325.682 124.361 C 325.688 124.239 325.694 124.117 325.701 123.996 L 332.504 123.912 C 332.498 124.034 332.492 124.156 332.485 124.276 C 332.496 126.231 334.021 127.909 335.98 127.903 C 337.939 127.897 339.408 126.276 339.403 124.199 C 339.409 124.077 339.416 123.957 339.422 123.835 L 346.225 123.751 C 346.218 123.872 346.212 123.994 346.206 124.116 C 346.218 126.07 347.742 127.747 349.701 127.742 C 351.545 127.73 353.129 126.115 353.123 124.038 C 353.13 123.917 353.136 123.795 353.143 123.673 L 359.588 123.812 Z" fill="white" stroke="#36255A" stroke-miterlimit="10" stroke-linecap="round" style=""/>
    <path d="M 369.232 135.948 L 363.25 238.097 L 288.239 233.099 L 294.22 130.951 L 301.123 131.438 C 301.123 131.56 301.123 131.682 301.123 131.804 C 301.008 133.754 302.504 135.583 304.345 135.705 C 306.186 135.827 307.911 134.242 308.026 132.291 C 308.026 132.17 308.026 132.048 308.026 131.926 L 314.814 132.413 C 314.814 132.535 314.814 132.657 314.814 132.779 C 314.699 134.729 316.08 136.558 318.036 136.68 C 319.877 136.802 321.602 135.217 321.717 133.267 C 321.717 133.145 321.717 133.023 321.717 132.901 L 328.505 133.389 C 328.505 133.51 328.505 133.632 328.505 133.754 C 328.39 135.705 329.771 137.533 331.727 137.655 C 333.568 137.777 335.293 136.192 335.408 134.242 C 335.408 134.12 335.408 133.998 335.408 133.876 L 342.195 134.364 C 342.195 134.486 342.195 134.608 342.195 134.729 C 342.08 136.68 343.576 138.508 345.417 138.63 C 347.258 138.752 348.983 137.167 349.098 135.217 C 349.098 135.095 349.098 134.973 349.098 134.851 L 355.886 135.339 C 355.886 135.461 355.886 135.583 355.886 135.705 C 355.771 137.655 357.152 139.483 359.108 139.605 C 360.949 139.727 362.674 138.143 362.789 136.192 C 362.789 136.07 362.789 135.948 362.789 135.827 L 369.232 135.948 Z" stroke="#36255A" stroke-miterlimit="10" stroke-linecap="round" style="fill: rgb(206, 209, 228);"/>
    <path d="M 297.558 140.824 L 364.86 145.213" stroke="#36255A" stroke-miterlimit="10" stroke-linecap="round" style=""/>
    <path opacity="0.4" d="M 356.347 177.638 L 301.93 173.615 C 301.124 173.493 300.434 172.762 300.434 171.908 C 300.549 171.055 301.239 170.324 302.045 170.324 L 356.462 174.346 C 357.267 174.468 357.957 175.2 357.957 176.053 C 357.957 176.906 357.267 177.638 356.347 177.638 Z" style="fill: rgb(155, 69, 69);"/>
    <path opacity="0.4" d="M 357.612 159.232 L 303.195 155.209 C 302.39 155.087 301.7 154.356 301.7 153.503 C 301.815 152.649 302.505 151.918 303.31 151.918 L 334.77 154.244 L 357.727 155.941 C 358.532 156.063 359.223 156.794 359.223 157.647 C 359.223 158.622 358.417 159.354 357.612 159.232 Z" style="fill: rgb(62, 2, 201);"/>
    <path opacity="0.4" d="M 357.037 168.373 L 302.62 164.351 C 301.815 164.23 301.124 163.498 301.124 162.645 C 301.124 161.792 301.93 161.06 302.735 161.06 L 339.296 163.763 L 357.152 165.082 C 357.957 165.204 358.648 165.935 358.648 166.789 C 358.648 167.642 357.842 168.495 357.037 168.373 Z" style="fill: rgb(204, 0, 0);"/>
    <path d="M 230.37 194.824 L 133.039 194.824 C 129.703 194.824 127.057 192.021 127.057 188.486 L 127.057 57.814 C 127.057 54.279 129.703 51.475 133.039 51.475 L 230.37 51.475 C 233.706 51.475 236.352 54.279 236.352 57.814 L 236.352 188.486 C 236.352 192.021 233.591 194.824 230.37 194.824 Z" fill="#36255A" style=""/>
    <path d="M 146.155 78.17 L 146.155 79.267 L 139.137 76.097 L 139.137 74.878 L 146.155 71.71 L 146.155 72.929 L 140.172 75.488 L 146.155 78.17 Z" fill="white" style=""/>
    <path d="M 149.031 83.777 L 148.226 83.777 L 153.978 67.2 L 154.784 67.2 L 149.031 83.777 Z" fill="white" style=""/>
    <path d="M 163.872 76.098 L 156.854 79.268 L 156.854 78.171 L 162.836 75.611 L 156.854 73.051 L 156.854 71.954 L 163.872 75.123 L 163.872 76.098 Z" fill="white" style=""/>
    <path d="M 211.041 128.392 L 139.942 128.392 C 138.907 128.392 138.101 127.538 138.101 126.441 C 138.101 125.344 138.907 124.491 139.942 124.491 L 211.041 124.491 C 212.077 124.491 212.882 125.344 212.882 126.441 C 212.882 127.417 212.077 128.392 211.041 128.392 Z" style="fill: rgb(255, 240, 240);"/>
    <path d="M 211.041 118.396 L 139.942 118.396 C 138.907 118.396 138.101 117.543 138.101 116.447 C 138.101 115.35 138.907 114.496 139.942 114.496 L 211.041 114.496 C 212.077 114.496 212.882 115.35 212.882 116.447 C 212.882 117.543 212.077 118.396 211.041 118.396 Z" fill="white" style=""/>
    <path d="M 211.041 138.387 L 139.942 138.387 C 138.907 138.387 138.101 137.534 138.101 136.437 C 138.101 135.34 138.907 134.487 139.942 134.487 L 211.041 134.487 C 212.077 134.487 212.882 135.34 212.882 136.437 C 212.882 137.412 212.077 138.387 211.041 138.387 Z" style="fill: rgb(142, 82, 245);"/>
    <path d="M 191.023 108.4 L 139.942 108.4 C 138.907 108.4 138.101 107.547 138.101 106.45 C 138.101 105.353 138.907 104.5 139.942 104.5 L 191.023 104.5 C 192.059 104.5 192.864 105.353 192.864 106.45 C 192.864 107.547 192.059 108.4 191.023 108.4 Z" style="fill: rgb(199, 217, 0);"/>
    <path d="M 156.97 98.528 L 139.827 98.528 C 138.792 98.528 137.986 97.674 137.986 96.577 C 137.986 95.48 138.792 94.627 139.827 94.627 L 156.97 94.627 C 158.005 94.627 158.81 95.48 158.81 96.577 C 158.925 97.552 158.005 98.528 156.97 98.528 Z" style="fill: rgb(194, 15, 194);"/>
    <path d="M 210.352 98.528 L 173.076 98.528 C 172.041 98.528 171.236 97.674 171.236 96.577 C 171.236 95.48 172.041 94.627 173.076 94.627 L 210.352 94.627 C 211.387 94.627 212.193 95.48 212.193 96.577 C 212.308 97.552 211.502 98.528 210.352 98.528 Z" fill="white" style=""/>
    <path d="M 210.351 108.4 L 200.342 108.4 C 199.307 108.4 198.502 107.547 198.502 106.45 C 198.502 105.353 199.307 104.5 200.342 104.5 L 210.351 104.5 C 211.386 104.5 212.192 105.353 212.192 106.45 C 212.307 107.547 211.501 108.4 210.351 108.4 Z" style=""/>
    <path d="M 319.071 109.863 L 267.76 109.985 C 264.308 109.985 261.432 107.06 261.432 103.281 L 261.317 58.179 C 261.317 54.522 264.078 51.475 267.645 51.475 L 318.956 51.353 C 322.408 51.353 325.284 54.279 325.284 58.058 L 325.399 103.159 C 325.284 106.816 322.523 109.863 319.071 109.863 Z" fill="#744CC6" style=""/>
    <path d="M 284.097 79.998 L 284.097 72.197 C 284.097 68.54 287.779 66.224 290.769 68.052 L 297.097 71.953 L 303.424 75.854 C 306.416 77.682 306.416 82.192 303.424 84.021 L 297.097 87.921 L 290.769 91.821 C 287.779 93.65 284.097 91.334 284.097 87.677 L 284.097 79.998 Z" fill="white" style=""/>
    <path d="M 143.569 183.173 L 112.507 183.173 C 108.94 183.173 105.949 180.125 105.949 176.225 L 105.949 152.455 C 105.949 148.677 108.825 145.507 112.507 145.507 L 143.569 145.507 C 147.136 145.507 150.127 148.555 150.127 152.455 L 150.127 176.225 C 150.127 180.125 147.251 183.173 143.569 183.173 Z" fill="white" stroke="#36255A" stroke-miterlimit="10" stroke-linecap="round" style=""/>
    <path d="M 138.113 160.709 L 136.157 160.709 C 135.927 159.856 135.582 159.003 135.122 158.149 L 136.618 156.809 C 137.193 156.199 137.193 155.224 136.618 154.614 L 135.467 153.395 C 134.892 152.786 133.971 152.786 133.396 153.395 L 132.016 154.858 C 131.325 154.371 130.52 154.005 129.6 153.761 L 129.6 151.689 C 129.6 150.836 128.909 150.226 128.219 150.226 L 126.608 150.226 C 125.803 150.226 125.228 150.957 125.228 151.689 L 125.228 153.761 C 124.307 154.005 123.502 154.371 122.812 154.858 L 121.431 153.395 C 120.856 152.786 119.935 152.786 119.36 153.395 L 118.21 154.614 C 117.634 155.224 117.634 156.199 118.21 156.687 L 119.59 158.149 C 119.13 158.881 118.785 159.856 118.555 160.709 L 116.599 160.709 C 115.794 160.709 115.218 161.441 115.218 162.172 L 115.218 163.879 C 115.218 164.732 115.909 165.341 116.599 165.341 L 118.555 165.341 C 118.785 166.316 119.13 167.169 119.59 167.9 L 118.21 169.363 C 117.98 169.607 117.749 169.973 117.749 170.46 C 117.749 170.826 117.864 171.192 118.21 171.557 L 119.36 172.776 C 119.59 173.02 120.05 173.264 120.396 173.264 C 120.741 173.264 121.086 173.142 121.431 172.776 L 122.812 171.313 C 123.502 171.801 124.422 172.167 125.228 172.411 L 125.228 174.361 C 125.228 175.214 125.918 175.824 126.608 175.824 L 128.219 175.824 C 129.024 175.824 129.6 175.092 129.6 174.361 L 129.6 172.411 C 130.52 172.167 131.325 171.801 132.016 171.313 L 133.396 172.776 C 133.626 173.02 134.087 173.264 134.432 173.264 C 134.777 173.264 135.122 173.142 135.467 172.776 L 136.618 171.557 C 137.193 170.948 137.193 169.973 136.618 169.363 L 135.237 167.9 C 135.697 167.169 136.042 166.194 136.272 165.341 L 138.228 165.341 C 139.034 165.341 139.609 164.61 139.609 163.879 L 139.609 162.172 C 139.609 161.441 138.919 160.709 138.113 160.709 Z M 127.414 167.657 C 124.998 167.657 123.157 165.585 123.157 163.147 C 123.157 160.953 124.652 159.125 126.608 158.637 C 126.838 158.637 127.184 158.515 127.529 158.515 C 127.874 158.515 128.104 158.515 128.449 158.637 C 130.405 159.125 131.901 160.953 131.901 163.147 C 131.786 165.585 129.83 167.657 127.414 167.657 Z" style="fill: rgb(208, 6, 6);"/>
  </g>
</svg>